<svg width="100" height="100" viewBox="0 0 100 100" fill="none" xmlns="http://www.w3.org/2000/svg">
<path d="M40.7667 23.15C40.7 23.2333 40.9 23.5 41.2 23.75C41.5333 24.0333 41.7667 24.1333 41.8 24.0167C41.9333 23.6333 40.95 22.8333 40.7667 23.15Z" fill="#FFE8C6"/>
<path d="M37.1667 26.1167C36.3667 26.4167 36.8833 27.1667 37.8667 27.1667C38.6333 27.1667 39.1667 26.9167 39.1667 26.5667C39.1667 26.1333 37.8833 25.85 37.1667 26.1167Z" fill="#FFE8C6"/>
<path d="M52.1667 27.5C51.3333 28.3333 52.0167 29.3333 53.65 29.65C56.1833 30.15 60.4 31.9 62.5333 33.35C66.6667 36.1667 69 40.3833 68.8 44.6833C68.7333 46 68.6333 46.4333 68.25 47.25C67.9833 47.7833 67.7333 48.1333 67.7 48.0333C67.6667 47.9167 67.5333 47.8333 67.4167 47.8333C67.3 47.8333 67.15 47.5667 67.1 47.25C67.0333 46.9333 66.95 46.6667 66.9 46.6667C66.85 46.6667 66.4833 47.0333 66.0833 47.4667C64.3667 49.3667 62.4 49.7333 58.35 48.9167C55.8333 48.4 55.0167 48.4333 53.9167 49.0833C53.05 49.5833 52.5667 50.2 51.6833 51.9667C51.1333 53.0667 51.05 53.3667 51.2333 53.4333C51.3667 53.4833 52.3333 53.0667 53.3833 52.5167C54.8333 51.7333 55.45 51.5 55.9833 51.5C57.5333 51.5 58.1333 52.3333 57.8167 54C57.5333 55.4333 57.4167 70.1167 57.6833 70.4333C58.15 71 58.4833 71.0333 58.9167 70.5667C59.3333 70.1333 59.3333 70.0667 59.3333 67.3167V64.5167L59.85 63.9333C60.6333 63.0333 61.6833 62.8667 64.2333 63.2167C66.6 63.55 67.25 63.45 68.1167 62.5833C68.6333 62.0667 68.6667 61.9667 68.6667 60.85C68.6667 59.85 68.75 59.5167 69.1667 58.7167C69.45 58.2 69.6667 57.6833 69.6667 57.5667C69.6667 57.4333 69.8167 57.05 70 56.7167C70.1833 56.3667 70.3333 55.7667 70.3333 55.35C70.3333 54.7333 70.4167 54.55 70.9667 54.0167C71.3333 53.6833 71.9167 53.2167 72.2833 52.9833C72.6833 52.7167 73 52.35 73.0667 52.0833C73.1833 51.6333 73.0333 51.3333 71.9667 49.9667C71.4667 49.3167 71.3833 48.4667 71.6333 46.5C72.1167 42.9167 71.1333 39.2833 68.8 35.8833C67.6333 34.2 65.0333 31.7667 63.3333 30.7667C61.4 29.6333 58.4333 28.45 55.9833 27.8667C52.9833 27.1333 52.5667 27.1 52.1667 27.5Z" fill="#FFE8C6"/>
<path d="M41.9667 28.1C40.6167 28.4167 38.7667 29.4 37.8333 30.2667C37.35 30.7167 36.85 31.4167 36.5667 32.05C36.15 32.95 36.0833 33.2833 36.0833 34.6C36.0833 35.65 36.15 36.2 36.3167 36.4C36.6167 36.75 36.9333 36.5 37.0667 35.7833C37.3833 34.1667 39.2167 31.6 40.7 30.7333C41.1833 30.4333 42.2167 29.95 43 29.65C44.7 28.9833 44.65 29.0167 44.2833 28.8167C44.1333 28.7167 44 28.4667 44 28.25C44 27.8833 43.9333 27.8333 43.4667 27.85C43.1667 27.85 42.4833 27.9667 41.9667 28.1Z" fill="#FFE8C6"/>
<path d="M25.9333 28.7667C25.75 29.25 25.8333 30.35 26.0833 30.8333C26.5167 31.6833 27.5167 32.1333 27.7167 31.5833C27.85 31.25 26.55 28.5 26.2667 28.5C26.1333 28.5 25.9833 28.6167 25.9333 28.7667Z" fill="#FFE8C6"/>
<path d="M29.5 29.2167C29.5 29.5333 29.9833 30.1667 30.25 30.1667C30.65 30.1667 30.6667 29.8833 30.3167 29.4333C29.95 28.9833 29.5 28.85 29.5 29.2167Z" fill="#FFE8C6"/>
<path d="M32.8833 32.7333C32.6167 32.95 32.2 33.55 31.95 34.0667C31.55 34.8667 31.5 35.1833 31.5 36.5333C31.5 37.7333 31.5833 38.25 31.85 38.8333C32.5667 40.4333 34.2667 41.6333 36.0333 41.8C37.45 41.9167 37.35 41.5667 35.4167 39.5C34.3833 38.4 33.5333 36.7333 33.3833 35.55C33.3333 35.0667 33.3833 34.2167 33.4833 33.65C33.7333 32.4 33.5667 32.15 32.8833 32.7333Z" fill="#FFE8C6"/>
<path d="M47.7167 33.4167C45.95 35.3833 44.8167 37.7833 45.3333 38.4167C45.45 38.55 45.6167 38.6667 45.7 38.6667C46.0667 38.6667 48.0167 36.5667 48.4 35.7667C49.0833 34.3 49.3333 32.3333 48.8333 32.3333C48.75 32.3333 48.25 32.8167 47.7167 33.4167Z" fill="#FFE8C6"/>
<path d="M55.6667 32.4833C55.6667 32.5833 55.9333 33.15 56.25 33.7667C57.1 35.3667 57.3833 36.4667 57.3 37.9833C57.25 39.2833 57.1833 39.45 56.0167 41.55C55.4 42.6167 54.8333 43 52.75 43.65C51.35 44.1 50.95 44.3 50.05 45.0333C48.9833 45.8667 48.05 47.2167 47.6667 48.4667C47.05 50.4 47.0167 54.75 47.6 54.95C47.8333 55.0333 48.65 53.25 49.4167 51C49.75 50.0333 50.25 48.8667 50.5167 48.4C51.5333 46.6 53.75 45.1 55.8167 44.8167C57.6 44.5667 58.8833 43.4167 59.6833 41.3833C60.2 40.05 60.2167 37.6667 59.7 36.2667C59.25 35.05 58.2333 33.6667 57.2833 33.0167C56.4667 32.4667 55.6667 32.2 55.6667 32.4833Z" fill="#FFE8C6"/>
<path d="M42.9 33.3667C42.0334 33.5833 40.7834 34.85 40.2334 36.0333C39.8167 36.9667 39.75 37.2667 39.7667 38.6667C39.7667 40.35 40.1334 41.6667 40.8667 42.5833C41.3667 43.2333 41.4834 42.9167 41.6 40.4667C41.7167 37.95 41.9667 36.9 42.8334 35.15C43.65 33.55 43.6667 33.1667 42.9 33.3667Z" fill="#FFE8C6"/>
<path d="M51.7167 34.4333C51.3 36.8667 50.1333 38.3667 47.35 40.0333C44.7833 41.5833 43.2167 43.6333 42.6667 46.1833C42.3667 47.5 42.5333 50.1833 42.95 51.3667C43.3667 52.5 44.4333 54.1667 44.75 54.1667C45.1667 54.1667 45.1833 53.85 44.9 52.0833C44.6667 50.65 44.65 50.1 44.7833 49.2C45.2167 46.45 46.4667 44.6167 49.25 42.6333C50.25 41.9167 51.3667 41.05 51.7167 40.7C52.5667 39.8667 53.3333 38.3167 53.3333 37.4C53.3333 36.7 52.2333 33.3333 52.0167 33.3333C51.95 33.3333 51.8167 33.8333 51.7167 34.4333Z" fill="#FFE8C6"/>
<path d="M62.6167 35.7833C62.5667 35.8667 62.5333 37.15 62.55 38.6667C62.55 41.15 62.5167 41.5167 62.1667 42.4C61.7 43.6 60.8 44.55 59.35 45.35C57.55 46.3333 57.5833 46.85 59.4667 47.2C61.4 47.5667 63.3667 46.75 64.45 45.1167C65.2333 43.95 65.4167 43.1667 65.4167 41C65.4167 39.1833 65.3833 39.0333 64.9167 38.1833C64.4 37.2667 63.0833 35.6667 62.8333 35.6667C62.75 35.6667 62.65 35.7167 62.6167 35.7833Z" fill="#FFE8C6"/>
<path d="M25.2333 36.9333C24.9667 37.5667 25.0833 38.3333 25.4667 38.4667C25.7333 38.55 26 37.8 26 36.9833C26 36.1333 25.5833 36.1 25.2333 36.9333Z" fill="#FFE8C6"/>
<path d="M28.95 38.5833C28.5834 38.9333 28.2834 40.5667 28.4167 41.4833C28.5667 42.5833 29.4167 44.2333 30.1334 44.8333C31.3667 45.85 32.0667 46.0667 34.25 46.1167C36.2834 46.1833 38 45.9333 38.1167 45.5667C38.2334 45.2333 37.0834 44.6667 35.5 44.25C33.6334 43.7333 32.5167 43.1833 31.5 42.2333C30.7167 41.5167 29.9167 40.1167 29.7334 39.1667C29.5834 38.4833 29.2667 38.25 28.95 38.5833Z" fill="#FFE8C6"/>
<path d="M33.4167 48.6833C33.35 48.7833 33.4667 49.05 33.6833 49.2667C34.15 49.7667 35.2167 49.7833 35.3 49.3C35.4 48.8167 33.6833 48.25 33.4167 48.6833Z" fill="#FFE8C6"/>
<path d="M38.5667 49.2C38.6167 49.5 38.7 50.05 38.7667 50.4167C38.9 51.2833 39.1333 51.6 39.9 51.9167C40.7167 52.2667 40.8 52 40.3167 50.65C39.8833 49.45 39.2833 48.6667 38.8 48.6667C38.5167 48.6667 38.4833 48.75 38.5667 49.2Z" fill="#FFE8C6"/>
<path d="M37.9833 53.2667C37.8167 53.4667 37.8167 53.6333 37.9667 54.0333C38.0667 54.3167 38.1167 54.6167 38.0667 54.7C37.8833 54.9833 37.8333 57.7 38 58C38.1 58.1667 38.2167 60.05 38.2667 62.2C38.3667 65.45 38.3333 66.25 38.1167 67.1167C37.9667 67.6833 37.85 68.5 37.8667 68.9333C37.8667 69.4167 37.8 69.75 37.65 69.85C37.5333 69.9167 37.4667 70.0167 37.5 70.05C38.3667 70.75 44.3333 74.2333 45.3333 74.6167C45.95 74.8667 46 74.8667 46.7333 74.4333C47.6333 73.9167 47.7167 73.9 48.3333 74.35C48.6833 74.6167 48.95 74.6833 49.3333 74.6C50.0833 74.45 55.9833 71.2333 56.6333 70.6167L57.1667 70.1V62.5C57.1667 55.1167 57.15 54.9 56.8167 54.2667C56.0667 52.8667 55.7167 52.85 53.35 54.1C50.6667 55.5167 49 56.7 48.3833 57.5667C48.0833 57.9833 47.7 58.3333 47.55 58.3333C47.3833 58.3333 46.7833 57.9 46.2167 57.3667C45.4 56.5833 44.5333 56.05 41.9167 54.7C40.1 53.7667 38.5333 53 38.4167 53C38.3 53 38.1167 53.1167 37.9833 53.2667ZM47.8333 66.0833C47.8333 72.2667 47.8 73.1667 47.5833 73.1667C47.3667 73.1667 47.3333 72.2667 47.3333 66.0833C47.3333 59.9 47.3667 59 47.5833 59C47.8 59 47.8333 59.9 47.8333 66.0833Z" fill="#FFE8C6"/>
<path d="M34.7 53.7C34.3833 54.0167 34.4333 69.9667 34.75 70.4C35.1833 70.9833 35.45 70.6167 35.55 69.2333C35.6167 68.5333 35.6667 67.55 35.6667 67.05C35.6667 66.5667 35.75 66.1667 35.8333 66.1667C35.9333 66.1667 36 64.8667 36 62.5833C36 60.6167 35.9333 59 35.85 59C35.7833 59 35.6833 57.8667 35.6333 56.5C35.5333 53.7333 35.3167 53.0833 34.7 53.7Z" fill="#FFE8C6"/>
</svg>
